<?xml version="1.0" encoding="utf-8"?>
<!-- Generator: Adobe Illustrator 16.0.4, SVG Export Plug-In . SVG Version: 6.00 Build 0)  -->
<!DOCTYPE svg PUBLIC "-//W3C//DTD SVG 1.1//EN" "http://www.w3.org/Graphics/SVG/1.1/DTD/svg11.dtd">
<svg version="1.1" id="Layer_1" xmlns="http://www.w3.org/2000/svg" xmlns:xlink="http://www.w3.org/1999/xlink" x="0px" y="0px"
	 width="757.244px" height="105.062px" viewBox="0 0 757.244 105.062" enable-background="new 0 0 757.244 105.062"
	 xml:space="preserve">
<text style="fill: white" transform="matrix(1 0 0 1 123.2646 58.9854)"><tspan x="0" y="0" font-family="'Futura-Bold'" font-size="72" letter-spacing="10">TULP</tspan><tspan x="217.942" y="0" font-family="'Futura-Bold'" font-size="72"> interactive</tspan></text>
<text style="fill: white" transform="matrix(0.9907 0 0 1 124.3901 105.062)" font-family="'Futura-Medium'" font-size="29.9308" letter-spacing="11.103">DATA EXPERIENCE DESIGN</text>
<rect x="20" y="3.919" fill="none" width="87.154" height="103"/>
<circle fill="white" cx="76.87" cy="12.459" r="12.137"/>
<path fill="white" d="M48.549,24.146v24.275c8.938,0,16.183,7.245,16.183,16.183v40.458h24.275V64.604
	C89.007,42.259,70.895,24.146,48.549,24.146z"/>
<path fill="white" d="M48.549,80.788c-8.938,0-16.183-7.246-16.183-16.183V48.421h8.092V24.146c-4.469,0-8.092-3.622-8.092-8.091
	V-0.128H8.092v24.274H0v24.275h8.092v16.183c0,22.344,18.113,40.458,40.458,40.458h8.092V80.788H48.549z"/>
</svg>
